<?xml version="1.0" standalone="no"?>
<!DOCTYPE svg PUBLIC "-//W3C//DTD SVG 20010904//EN"
 "http://www.w3.org/TR/2001/REC-SVG-20010904/DTD/svg10.dtd">
<svg version="1.0" xmlns="http://www.w3.org/2000/svg"
 width="300.000000pt" height="300.000000pt" viewBox="0 0 300.000000 300.000000"
 preserveAspectRatio="xMidYMid meet">
<metadata>
Created by potrace 1.10, written by Peter Selinger 2001-2011
</metadata>
<g transform="translate(0.000000,300.000000) scale(0.100000,-0.100000)"
fill="#000000" stroke="none">
<path d="M2205 2886 c-16 -7 -40 -24 -52 -38 -12 -13 -115 -246 -228 -517
-229 -551 -229 -550 -177 -632 22 -33 27 -50 21 -67 -5 -14 -14 -20 -23 -16
-27 10 -123 -16 -169 -47 -55 -36 -95 -92 -111 -156 -11 -42 -16 -48 -40 -51
-18 -2 -36 4 -50 16 -37 34 -88 54 -135 54 -59 -1 -1050 -245 -1084 -267 -28
-18 -57 -71 -57 -105 0 -36 31 -91 64 -112 43 -27 78 -23 656 61 455 67 487
73 524 99 22 15 49 46 60 68 26 53 70 67 95 32 28 -41 75 -81 121 -101 54 -24
150 -28 198 -8 30 13 35 12 52 -5 17 -16 18 -25 9 -60 -8 -29 -7 -54 1 -85 10
-40 47 -80 378 -407 202 -200 381 -372 397 -383 41 -26 104 -25 145 4 60 40
87 126 58 180 -6 12 -164 198 -350 413 -373 431 -373 431 -472 421 -48 -5 -55
-3 -65 17 -9 17 -9 29 4 58 35 85 10 214 -55 283 -34 36 -27 71 17 81 52 13
101 43 121 76 11 18 61 164 112 323 50 160 123 386 162 504 57 175 69 222 65
258 -6 54 -44 99 -96 113 -46 13 -59 12 -96 -4z m93 -37 c38 -13 62 -48 62
-91 0 -17 -36 -142 -79 -277 -44 -136 -116 -359 -160 -497 -45 -138 -90 -263
-102 -278 -26 -33 -55 -36 -44 -3 4 12 10 45 12 72 3 41 0 55 -19 77 -48 58
-129 37 -171 -44 -10 -21 -23 -38 -27 -38 -28 0 -9 70 65 245 18 44 57 136 86
205 28 69 59 143 69 165 10 22 48 114 85 205 83 204 102 239 140 256 37 16 44
17 83 3z m-350 -1017 c14 -18 16 -85 3 -110 -8 -14 -17 -36 -26 -62 -15 -44
-49 -60 -65 -30 -10 19 -50 34 -50 19 0 -15 -17 -10 -24 6 -5 14 6 58 27 105
41 90 96 120 135 72z m-100 -244 c32 -26 3 -49 -36 -29 -9 5 -26 12 -36 16
-19 5 -19 6 0 20 19 14 48 11 72 -7z m-29 -57 c20 -11 43 -27 50 -35 8 -9 22
-16 32 -16 20 0 43 -29 60 -77 11 -34 7 -48 -47 -160 -72 -146 -269 -158 -370
-22 -13 18 -24 38 -24 45 0 7 -10 9 -25 7 -19 -4 -25 0 -31 21 -4 16 -1 35 9
49 8 12 17 36 21 53 13 58 43 93 108 124 78 36 159 40 217 11z m-550 -142 c35
-12 41 -29 11 -29 -30 0 -118 -47 -130 -69 -18 -35 -11 -71 19 -102 27 -27 35
-29 103 -29 l73 0 -25 -20 c-27 -20 -68 -29 -290 -60 -80 -11 -190 -27 -245
-35 -55 -8 -116 -17 -135 -19 -19 -3 -91 -14 -160 -25 -69 -11 -161 -23 -205
-27 -72 -6 -83 -4 -107 15 -35 28 -44 71 -23 111 18 35 54 53 148 75 34 7 82
19 107 25 25 7 72 18 105 26 33 8 68 16 77 18 16 4 212 52 253 62 11 2 88 22
170 43 83 22 164 41 180 44 17 2 33 5 36 6 3 0 20 -4 38 -10z m116 -48 c16 -6
19 -15 16 -47 -1 -21 -8 -43 -14 -47 -7 -4 0 -5 16 -1 16 4 27 2 27 -5 0 -17
-30 -28 -111 -42 -62 -10 -82 -10 -107 0 -34 14 -47 39 -37 71 7 21 91 67 102
56 3 -3 12 -1 19 5 8 6 20 9 29 6 8 -4 17 -2 20 3 7 11 13 12 40 1z m545 -155
c0 -18 -49 -58 -62 -50 -5 4 3 19 18 35 31 32 44 36 44 15z m122 -80 c21 -23
45 -57 54 -76 15 -30 15 -37 3 -60 -27 -47 -89 -34 -146 30 -12 14 -30 33 -39
42 -25 26 -26 64 -2 65 26 2 50 23 44 39 -15 40 34 17 86 -40z m103 -7 c20
-18 70 -73 112 -123 42 -50 79 -93 83 -96 3 -3 64 -72 135 -155 71 -82 170
-197 220 -255 50 -58 99 -116 108 -130 27 -39 22 -84 -14 -125 -26 -29 -38
-35 -73 -35 -49 0 -27 -19 -477 420 -293 286 -351 353 -334 381 4 5 23 -3 43
-19 82 -64 126 -69 167 -20 22 26 26 39 22 70 -3 21 -17 54 -31 73 -14 18 -26
36 -26 39 0 16 33 3 65 -25z"/>
<path d="M1645 1512 c-69 -33 -115 -103 -115 -175 0 -48 44 -128 85 -156 68
-46 172 -40 232 12 71 63 90 148 51 227 -47 91 -164 134 -253 92z m164 -40
c73 -58 98 -140 65 -204 -21 -40 -73 -88 -99 -89 -54 -4 -102 5 -134 26 -50
31 -60 45 -70 100 -14 77 19 139 101 186 43 25 91 18 137 -19z"/>
</g>
</svg>
