<?xml version="1.0" standalone="no"?>
<!DOCTYPE svg PUBLIC "-//W3C//DTD SVG 20010904//EN"
 "http://www.w3.org/TR/2001/REC-SVG-20010904/DTD/svg10.dtd">
<svg version="1.0" xmlns="http://www.w3.org/2000/svg"
 width="275.000000pt" height="183.000000pt" viewBox="0 0 275.000000 183.000000"
 preserveAspectRatio="xMidYMid meet">
<metadata>
Created by potrace 1.10, written by Peter Selinger 2001-2011
</metadata>
<g transform="translate(0.000000,183.000000) scale(0.100000,-0.100000)"
fill="#000000" stroke="none">
<path d="M716 1579 l-26 -20 0 -643 0 -643 23 -21 23 -22 640 0 641 0 21 23
22 23 0 641 0 642 -26 20 c-26 21 -34 21 -659 21 -625 0 -633 0 -659 -21z
m1304 -19 c20 -20 20 -33 20 -645 0 -612 0 -625 -20 -645 -20 -20 -33 -20
-645 -20 -612 0 -625 0 -645 20 -20 20 -20 33 -20 645 0 612 0 625 20 645 20
20 33 20 645 20 612 0 625 0 645 -20z"/>
<path d="M783 1530 c-47 -19 -37 -94 14 -106 21 -6 31 -2 49 19 26 30 22 60
-9 82 -24 17 -24 17 -54 5z m52 -50 c0 -30 -35 -40 -55 -15 -10 12 -10 18 0
30 20 25 55 15 55 -15z"/>
<path d="M1923 1530 c-44 -18 -38 -91 7 -105 56 -18 96 66 48 99 -25 18 -25
18 -55 6z m52 -50 c0 -20 -6 -26 -26 -28 -30 -4 -46 22 -28 45 20 23 54 12 54
-17z"/>
<path d="M1240 1436 c-194 -57 -337 -199 -385 -383 -48 -183 7 -385 140 -518
105 -105 227 -155 380 -155 153 0 275 50 380 155 166 166 205 428 94 635 -57
108 -175 208 -294 252 -74 27 -246 34 -315 14z m231 -16 c93 -17 209 -81 275
-153 197 -210 192 -511 -10 -713 -208 -207 -515 -207 -722 0 -76 76 -113 141
-139 241 -90 353 232 692 596 625z"/>
<path d="M1390 1348 c-28 -31 -61 -123 -67 -191 -5 -44 -11 -60 -25 -68 -13
-7 -24 -7 -30 -1 -17 17 -38 117 -38 185 0 65 -1 67 -25 67 -34 0 -73 -21
-109 -59 -25 -26 -28 -35 -23 -67 8 -51 49 -131 91 -180 25 -30 33 -47 29 -63
-5 -18 -10 -21 -32 -16 -47 11 -125 51 -174 88 -26 21 -50 37 -53 37 -3 0 -12
-16 -20 -35 -18 -45 -18 -115 1 -143 22 -30 114 -56 207 -56 70 -1 78 -3 87
-23 9 -21 5 -25 -53 -52 -34 -17 -95 -36 -134 -43 -48 -8 -72 -17 -72 -26 0
-35 49 -96 98 -122 34 -17 122 28 194 101 43 42 63 56 78 52 11 -3 20 -8 20
-12 1 -27 -51 -140 -82 -181 -21 -28 -38 -57 -38 -64 0 -19 52 -36 107 -36 79
0 113 59 119 208 2 45 6 87 9 92 25 41 77 -49 97 -169 7 -40 18 -75 25 -78 30
-11 133 79 133 116 0 33 -52 122 -105 177 -54 57 -63 91 -21 78 43 -13 114
-54 164 -93 28 -23 54 -41 57 -41 14 0 35 73 35 118 0 35 -5 54 -19 66 -31 28
-114 55 -194 62 -47 4 -78 12 -81 20 -8 20 78 45 177 51 61 4 90 10 94 19 7
20 -35 101 -64 124 -14 11 -34 20 -44 20 -36 0 -130 -42 -187 -84 -51 -38 -61
-42 -80 -32 l-22 12 35 59 c20 33 57 81 82 107 50 51 49 62 -3 84 -52 22 -119
18 -144 -8z m129 -9 c36 -13 39 -22 10 -43 -30 -21 -107 -125 -119 -162 -9
-25 -16 -31 -41 -31 l-31 0 6 50 c8 54 36 135 61 173 17 27 59 32 114 13z
m-312 -92 c1 -46 9 -92 23 -129 l21 -57 -21 -23 -21 -23 -20 25 c-64 81 -105
179 -89 210 11 21 78 70 95 70 6 0 11 -31 12 -73z m535 -84 c14 -16 33 -43 42
-60 l17 -33 -76 0 c-50 0 -96 -7 -136 -20 -58 -20 -62 -20 -80 -4 -11 9 -19
20 -19 23 0 13 114 84 163 102 66 23 59 24 89 -8z m-281 -106 c53 -36 79 -82
79 -142 0 -168 -212 -228 -307 -86 -49 72 -23 175 56 228 47 32 125 32 172 0z
m-402 -86 c31 -16 71 -32 89 -36 17 -3 32 -13 32 -20 0 -7 3 -20 6 -29 13 -33
-188 -14 -246 24 -16 10 -21 90 -7 123 7 17 9 17 39 -8 17 -14 56 -39 87 -54z
m675 -41 c77 -24 91 -43 82 -107 -8 -63 -14 -68 -45 -39 -36 34 -137 93 -172
101 -16 4 -29 13 -29 20 0 7 -3 20 -6 29 -9 24 87 21 170 -4z m-141 -169 c25
-26 57 -71 71 -98 24 -49 24 -50 7 -79 -18 -30 -61 -64 -81 -64 -5 0 -10 12
-10 28 0 39 -24 123 -50 175 -18 36 -20 48 -11 66 7 11 15 21 20 21 5 0 29
-22 54 -49z m-342 9 c10 -6 19 -14 19 -19 0 -18 -105 -110 -151 -132 -46 -21
-53 -22 -77 -8 -15 8 -37 30 -50 49 l-23 35 49 7 c57 9 149 41 178 63 23 17
30 18 55 5z m169 -118 c0 -99 -22 -170 -58 -183 -24 -9 -112 -3 -112 8 0 3 18
33 40 66 23 33 48 86 58 118 16 56 19 59 65 68 4 0 7 -34 7 -77z"/>
<path d="M1309 1017 c-46 -31 -61 -63 -55 -117 6 -64 57 -110 121 -110 37 0
52 6 81 33 112 102 -21 279 -147 194z m128 -23 c12 -7 27 -31 34 -52 30 -100
-92 -172 -166 -97 -34 33 -41 70 -21 112 28 58 95 75 153 37z"/>
<path d="M887 1402 c-20 -22 -22 -63 -5 -80 31 -31 98 0 98 45 0 46 -62 69
-93 35z m68 -30 c8 -20 -19 -47 -39 -39 -26 10 -32 38 -12 53 21 15 42 9 51
-14z"/>
<path d="M1802 1413 c-7 -3 -18 -16 -23 -30 -22 -59 59 -102 95 -51 21 30 20
44 -4 68 -20 20 -42 24 -68 13z m46 -22 c8 -4 12 -19 10 -32 -2 -18 -9 -24
-28 -24 -28 0 -39 27 -20 50 14 17 20 18 38 6z"/>
<path d="M1792 514 c-42 -29 -17 -104 35 -104 20 0 53 38 53 60 0 22 -33 60
-53 60 -7 0 -23 -7 -35 -16z m58 -29 c10 -12 10 -18 0 -30 -27 -32 -71 -8 -56
30 3 8 14 15 24 15 11 0 25 -7 32 -15z"/>
<path d="M887 502 c-21 -23 -22 -66 -2 -82 8 -7 27 -12 42 -12 50 0 72 67 31
96 -29 21 -51 20 -71 -2z m67 -28 c8 -21 -11 -44 -35 -44 -19 0 -35 33 -24 50
10 16 52 12 59 -6z"/>
<path d="M1900 390 c-25 -25 -26 -52 -2 -73 45 -41 114 0 93 55 -16 42 -59 50
-91 18z m60 -15 c19 -23 8 -50 -20 -50 -19 0 -26 6 -28 24 -5 35 26 53 48 26z"/>
<path d="M767 382 c-47 -52 21 -120 77 -79 21 16 24 60 6 82 -17 21 -63 19
-83 -3z m63 -17 c15 -18 7 -43 -16 -52 -24 -9 -46 24 -33 48 12 23 32 24 49 4z"/>
</g>
</svg>
