<?xml version="1.0" standalone="no"?>
<!DOCTYPE svg PUBLIC "-//W3C//DTD SVG 20010904//EN"
 "http://www.w3.org/TR/2001/REC-SVG-20010904/DTD/svg10.dtd">
<svg version="1.0" xmlns="http://www.w3.org/2000/svg"
 width="225.000000pt" height="225.000000pt" viewBox="0 0 225.000000 225.000000"
 preserveAspectRatio="xMidYMid meet">
<metadata>
Created by potrace 1.10, written by Peter Selinger 2001-2011
</metadata>
<g transform="translate(0.000000,225.000000) scale(0.100000,-0.100000)"
fill="#000000" stroke="none">
<path d="M1037 2060 c-105 -27 -206 -113 -255 -218 -36 -77 -37 -198 -2 -287
33 -85 123 -174 207 -205 l62 -22 3 -137 c3 -124 5 -136 21 -135 17 2 18 -6
12 -120 -4 -66 -8 -234 -9 -372 -3 -190 -7 -256 -17 -272 -13 -21 -21 -22
-156 -22 -155 0 -158 -1 -158 -60 l0 -25 380 0 380 0 0 25 c0 59 -3 60 -158
60 -193 1 -180 -22 -177 298 1 136 -1 302 -5 368 -6 114 -5 122 12 120 16 -1
18 11 21 135 l3 137 62 22 c84 31 174 120 207 205 35 89 34 210 -2 288 -38 81
-114 158 -191 192 -68 31 -172 42 -240 25z m83 -25 c0 -10 -10 -15 -29 -15
-16 0 -42 -5 -57 -10 -21 -8 -29 -8 -36 2 -6 10 -8 10 -8 -2 -1 -17 -94 -82
-104 -73 -12 12 -6 21 34 48 75 52 200 83 200 50z m93 4 c20 -5 37 -14 37 -19
0 -5 6 -7 13 -4 14 5 107 -52 107 -66 0 -20 -21 -20 -42 0 -33 31 -104 62
-154 68 -28 3 -44 10 -44 18 0 17 31 18 83 3z m-93 -119 c0 -88 -1 -90 -23
-90 -20 0 -28 11 -52 71 -15 38 -29 68 -32 65 -2 -2 9 -36 25 -75 16 -38 27
-72 24 -76 -12 -11 -23 -3 -46 34 -18 29 -34 41 -62 48 -21 4 -39 13 -41 20
-8 24 126 92 185 93 21 0 22 -3 22 -90z m148 55 c28 -13 53 -28 56 -33 3 -5
-12 0 -34 11 -59 29 -90 13 -125 -64 -14 -32 -28 -59 -31 -59 -2 0 -4 41 -4
91 l0 91 44 -6 c24 -4 67 -18 94 -31z m31 -46 l34 -21 -55 -55 -55 -55 -31 19
-31 19 24 53 c14 29 29 50 35 46 5 -3 10 -1 10 4 0 17 32 13 69 -10z m-417 5
c10 -9 -53 -104 -68 -104 -20 0 -18 7 17 62 30 47 39 54 51 42z m539 -45 c47
-74 75 -189 45 -189 -11 0 -27 57 -30 115 -1 6 -7 17 -14 25 -7 8 -24 29 -38
45 -14 17 -22 24 -18 16 5 -9 3 -12 -4 -7 -13 8 2 46 17 46 5 0 24 -23 42 -51z
m-507 13 c3 -5 -7 -18 -23 -30 -15 -11 -38 -40 -50 -64 -11 -24 -21 -36 -21
-28 0 18 36 88 58 113 17 19 28 22 36 9z m451 -54 l15 -38 -62 -28 c-61 -28
-63 -28 -77 -9 -12 17 -9 24 40 73 29 30 56 51 61 46 4 -4 14 -24 23 -44z m40
-13 c14 -30 28 -73 31 -95 l7 -40 -84 -2 -84 -2 83 -3 c91 -4 91 -5 72 -74
l-10 -37 -80 32 c-78 30 -80 32 -78 64 1 21 7 32 18 33 122 9 143 46 94 167
-3 6 -3 12 1 12 3 0 17 -25 30 -55z m-425 30 c5 -3 15 -16 21 -28 10 -18 6
-17 -22 8 -31 27 -30 26 4 -11 34 -37 37 -44 26 -62 -12 -19 -12 -19 -63 3
-28 12 -60 25 -70 29 -18 6 -17 9 14 41 32 33 59 39 90 20z m-163 -59 c-3 -7
-9 -34 -12 -60 -5 -31 -12 -46 -22 -46 -12 0 -14 9 -8 46 9 62 14 74 32 74 9
0 13 -6 10 -14z m359 -2 c42 -20 64 -59 64 -115 0 -33 -6 -47 -34 -75 -29 -29
-41 -34 -79 -34 -128 0 -167 163 -54 219 51 25 59 26 103 5z m-251 -31 c54
-22 65 -30 65 -50 0 -23 -2 -24 -77 -21 -65 3 -77 6 -79 21 -2 18 14 77 22 77
2 0 33 -12 69 -27z m443 -18 c-16 -17 -108 -31 -108 -18 0 6 26 21 58 35 46
20 58 22 60 10 2 -8 -2 -20 -10 -27z m-523 -105 c16 -17 29 -21 66 -18 26 2
45 -1 42 -5 -3 -5 5 -3 18 3 19 11 24 10 36 -6 7 -10 13 -20 13 -24 0 -3 -27
-32 -60 -65 l-61 -60 -20 25 c-38 48 -61 113 -65 185 -2 55 -1 61 5 28 4 -23
16 -52 26 -63z m-45 15 c0 -41 30 -118 61 -158 17 -20 27 -42 23 -49 -4 -7 -3
-8 5 -4 6 4 25 -4 41 -18 17 -13 39 -27 49 -31 12 -4 18 -12 15 -20 -9 -22
-70 13 -125 72 -60 64 -76 93 -58 104 11 7 11 9 -2 9 -11 0 -20 15 -28 44 -15
60 -14 76 4 76 9 0 15 -9 15 -25z m190 11 c0 -18 -22 -26 -75 -26 -37 0 -75
18 -75 36 0 2 34 4 75 4 57 0 75 -3 75 -14z m490 -2 c0 -30 -23 -104 -32 -104
-5 0 -7 -4 -3 -10 13 -21 -79 -131 -146 -172 -29 -18 -123 -48 -151 -48 -29 0
-21 28 10 33 15 2 5 5 -24 6 -28 0 -73 8 -100 18 -53 18 -124 58 -124 71 0 4
26 34 59 66 52 52 61 57 80 47 23 -13 26 -22 11 -37 -10 -10 -50 -112 -50
-124 0 -3 5 3 11 13 11 18 11 18 25 -1 17 -25 93 -46 141 -38 26 4 32 3 18 -3
-16 -7 -12 -9 16 -8 21 1 35 5 33 9 -2 4 5 9 16 13 11 3 33 18 50 31 16 14 35
22 41 18 8 -5 9 -3 4 5 -4 7 1 22 13 34 31 34 62 102 69 152 3 28 11 45 19 45
8 0 14 -7 14 -16z m-112 -82 c23 -9 42 -21 42 -27 0 -19 -51 -86 -63 -82 -21
7 -109 128 -103 143 5 12 11 12 43 -2 21 -9 57 -23 81 -32z m-109 -39 c36 -44
39 -75 10 -104 -27 -27 -29 -25 -69 85 -6 16 -13 27 -15 24 -3 -3 7 -33 21
-68 29 -71 25 -80 -38 -80 l-38 0 0 75 c0 65 2 75 18 75 9 1 28 7 42 15 34 20
35 20 69 -22z m-139 -69 l0 -76 -32 19 c-41 24 -45 49 -18 97 36 59 50 48 50
-40z m220 -15 c0 -9 -69 -59 -82 -59 -3 0 7 13 23 29 16 16 29 37 29 46 0 14
3 15 15 5 8 -7 15 -16 15 -21z m-257 -95 c36 -6 54 -34 21 -34 -39 0 -104 23
-104 37 0 11 6 14 23 9 12 -3 39 -9 60 -12z m95 -176 l-3 -123 -50 0 -50 0 -3
123 -3 122 56 0 56 0 -3 -122z m-38 -258 c0 -91 -3 -110 -15 -110 -12 0 -15
19 -15 110 0 91 3 110 15 110 12 0 15 -19 15 -110z m10 -150 c0 -10 -8 -24
-17 -30 -12 -8 -13 -10 -3 -7 13 4 15 -25 18 -214 l4 -219 -29 0 -29 0 1 245
0 245 28 0 c20 0 27 -5 27 -20z m30 -515 c13 -25 14 -25 157 -25 l143 0 0 -25
0 -25 -210 0 -210 0 -1 23 -2 22 -4 -23 c-4 -22 -6 -23 -141 -20 -133 3 -137
4 -140 26 -3 22 -3 22 141 22 144 0 144 0 155 25 10 21 18 25 55 25 36 0 46
-4 57 -25z"/>
<path d="M1149 1185 c-4 -5 -5 -21 -4 -35 3 -26 -12 -53 -24 -46 -4 3 -13 1
-21 -5 -12 -7 -11 -9 6 -9 38 0 56 22 52 65 -2 22 -6 36 -9 30z"/>
</g>
</svg>
