<?xml version="1.0" standalone="no"?>
<!DOCTYPE svg PUBLIC "-//W3C//DTD SVG 20010904//EN"
 "http://www.w3.org/TR/2001/REC-SVG-20010904/DTD/svg10.dtd">
<svg version="1.0" xmlns="http://www.w3.org/2000/svg"
 width="225.000000pt" height="225.000000pt" viewBox="0 0 225.000000 225.000000"
 preserveAspectRatio="xMidYMid meet">
<metadata>
Created by potrace 1.10, written by Peter Selinger 2001-2011
</metadata>
<g transform="translate(0.000000,225.000000) scale(0.100000,-0.100000)"
fill="#000000" stroke="none">
<path d="M992 2005 c-131 -37 -197 -73 -279 -153 -130 -128 -196 -287 -197
-477 -1 -107 12 -160 70 -281 47 -98 194 -229 302 -270 3 -1 -14 -131 -29
-209 l-11 -61 -67 -17 c-90 -24 -181 -80 -181 -112 0 -31 52 -91 100 -115 88
-45 154 -55 370 -54 227 0 287 11 372 71 48 33 84 99 66 121 -29 35 -217 102
-285 102 -17 0 -24 7 -28 28 -11 51 -23 87 -48 143 l-26 56 72 7 c40 4 94 9
121 10 40 3 55 10 85 40 20 19 63 57 97 85 137 111 209 260 221 456 5 82 2
115 -15 182 -50 196 -227 376 -430 437 -81 23 -216 29 -280 11z m295 -30 c95
-32 255 -140 226 -152 -7 -2 -13 -9 -13 -15 0 -6 7 -5 16 3 14 12 21 8 50 -26
50 -59 92 -144 115 -232 38 -146 7 -346 -76 -483 -88 -144 -258 -251 -424
-266 l-69 -7 -11 39 c-20 70 -16 80 33 93 50 12 96 59 96 97 0 27 -23 78 -47
105 -12 15 -11 17 14 24 15 3 38 16 50 27 l21 20 21 -21 c41 -41 143 -39 217
4 26 15 50 42 70 77 26 48 29 62 29 143 0 73 -5 100 -23 140 -29 62 -85 121
-130 136 -29 10 -38 9 -61 -8 -14 -11 -36 -43 -47 -72 l-21 -53 -28 26 c-15
14 -32 23 -38 19 -6 -4 -7 4 -1 23 5 16 9 52 9 81 0 147 -180 233 -337 161
-78 -36 -145 -101 -179 -173 -52 -108 -34 -181 48 -192 l41 -5 4 -60 c3 -51 0
-62 -19 -80 -12 -12 -30 -41 -39 -65 -30 -78 -2 -172 77 -258 36 -39 39 -47
39 -98 0 -31 -5 -59 -10 -62 -18 -11 -107 46 -179 114 -83 79 -131 169 -157
300 -25 127 -2 275 64 410 49 101 153 208 243 251 35 16 71 30 80 30 9 0 32 7
50 15 58 25 207 20 296 -10z m-182 -117 c-15 -6 -12 -7 13 -3 28 4 39 -1 77
-36 51 -47 70 -94 61 -152 -8 -47 -21 -67 -45 -67 -12 0 -13 2 -3 9 11 7 10 9
-3 15 -9 3 -13 11 -9 17 5 8 3 9 -5 5 -7 -5 -10 -14 -7 -22 6 -17 -1 -20 -62
-28 -28 -4 -41 -3 -37 4 4 6 -1 7 -11 3 -12 -5 -14 -8 -5 -11 8 -3 -1 -17 -24
-38 -31 -28 -40 -31 -59 -23 -18 8 -41 6 -99 -10 -60 -17 -80 -19 -100 -10
-63 29 -59 134 8 223 28 37 28 6 0 -34 -28 -40 -42 -115 -24 -126 5 -3 7 1 4
8 -3 7 5 18 17 23 12 6 24 17 26 25 4 11 -1 10 -17 -4 -11 -11 -21 -14 -21 -9
0 6 7 16 15 23 17 14 21 35 5 25 -16 -10 -12 11 5 25 8 7 15 18 15 26 0 7 11
25 25 40 14 15 25 24 25 20 0 -4 10 -2 21 5 28 15 67 19 108 12 l34 -6 -24
-14 c-26 -16 -22 -14 66 17 31 12 54 15 60 9 14 -14 28 -11 22 5 -3 7 -1 18 4
23 7 7 5 12 -5 16 -8 3 -18 1 -22 -5 -4 -7 -3 -8 4 -4 7 4 12 3 12 -3 0 -18
-20 -23 -26 -7 -3 9 -11 13 -16 9 -6 -3 -27 -6 -47 -7 -23 -1 -35 -6 -33 -14
1 -6 -5 -12 -13 -12 -8 0 -15 3 -15 8 0 13 -65 5 -98 -12 -18 -9 -32 -13 -32
-10 0 4 -11 -3 -25 -16 -14 -13 -25 -18 -25 -12 0 16 80 73 129 92 42 16 192
24 156 8z m415 -261 c0 -5 4 -6 9 -2 5 3 13 0 17 -6 4 -8 3 -9 -4 -5 -15 9
-15 9 4 -48 20 -57 14 -141 -12 -185 -15 -26 -68 -59 -85 -54 -3 1 -13 -11
-22 -27 -15 -25 -15 -28 -1 -26 8 1 20 9 25 17 12 19 11 2 -1 -21 -6 -11 -18
-17 -29 -15 -11 2 -27 -5 -37 -16 -20 -22 -7 -26 21 -5 10 7 26 11 36 9 20 -6
34 27 24 57 -5 15 -2 20 14 20 10 0 27 3 37 7 12 4 15 3 10 -5 -4 -7 -1 -12 9
-12 9 0 14 4 10 9 -3 5 0 13 6 16 5 4 8 14 5 22 -3 8 -2 12 3 8 14 -8 23 66
17 132 -4 46 -3 53 5 33 6 -14 11 -54 11 -90 1 -125 -71 -231 -167 -246 -61
-9 -120 9 -142 43 -16 24 -16 26 2 39 26 19 12 29 -17 11 -12 -9 -44 -19 -70
-22 -134 -20 -240 132 -179 257 34 70 72 93 157 93 61 0 75 -4 106 -27 74 -57
95 -175 43 -244 -20 -26 -24 -38 -15 -44 6 -4 12 -11 12 -16 0 -5 3 -15 8 -23
8 -15 30 -7 30 12 0 9 -2 9 -8 1 -5 -9 -10 -9 -18 0 -8 9 -7 15 2 23 9 9 14 8
18 -4 5 -12 9 -13 21 -3 18 15 20 -1 3 -18 -7 -7 -8 -12 -2 -12 12 0 44 53 43
72 0 7 -4 4 -8 -6 -8 -20 -48 -30 -57 -14 -3 5 -12 4 -20 -3 -21 -17 -17 -1 9
34 28 40 31 148 6 187 -15 23 -15 29 8 81 27 63 62 91 88 69 14 -12 20 -7 16
15 -1 6 11 -6 28 -25 17 -19 30 -39 31 -43z m-553 -97 c1 -11 -2 -18 -8 -15
-5 4 -9 1 -9 -4 0 -6 4 -11 9 -11 9 0 7 -38 -3 -47 -3 -3 -9 10 -14 28 l-8 34
-8 -29 c-6 -24 -9 -27 -18 -15 -7 11 -9 9 -5 -9 4 -18 2 -22 -9 -18 -7 3 -13
0 -11 -6 1 -6 -3 -12 -9 -15 -16 -5 -25 38 -17 78 5 28 7 30 14 14 6 -16 8
-16 8 -4 1 21 42 33 53 16 6 -9 11 -7 19 6 13 22 14 21 16 -3z m23 -111 c0 -5
-4 -7 -10 -4 -13 8 -13 -26 1 -45 8 -12 9 -9 4 10 -5 23 -5 23 6 5 38 -66 66
-97 105 -116 33 -15 44 -27 44 -43 0 -28 8 -36 26 -29 11 4 11 10 2 26 -6 12
-7 19 -3 15 5 -4 14 -3 22 4 16 13 20 10 25 -17 1 -11 -1 -20 -7 -21 -27 -3
-43 -17 -41 -39 0 -13 3 -22 5 -19 7 7 51 -59 51 -77 0 -10 -5 -29 -11 -43
-36 -79 -249 -49 -335 46 -105 117 -96 268 20 339 33 20 96 26 96 8z m-36
-449 c4 0 4 5 0 11 -3 6 8 4 24 -5 17 -9 38 -16 47 -16 8 0 15 -4 15 -9 0 -5
10 -7 23 -4 16 3 18 2 8 -5 -10 -7 -10 -14 -2 -30 6 -11 11 -32 11 -46 0 -13
6 -27 13 -30 6 -4 -13 -4 -43 -1 -66 6 -150 34 -150 51 0 13 36 8 56 -7 7 -6
11 -2 11 9 0 21 -15 42 -31 42 -6 0 -3 -5 7 -11 9 -5 17 -15 17 -22 0 -8 -3
-9 -8 -1 -4 6 -16 16 -27 22 -11 6 -15 12 -9 12 11 0 12 35 1 46 -16 16 -5 26
11 11 10 -10 22 -17 26 -17z m101 -156 c45 -5 55 -9 40 -15 -11 -4 -15 -8 -8
-8 7 -1 17 -11 24 -22 8 -15 8 -19 0 -15 -6 4 -11 3 -11 -3 0 -6 9 -15 19 -20
19 -11 48 -90 53 -145 4 -41 -18 -44 -26 -3 -3 19 -18 44 -32 58 -36 34 -58
17 -62 -50 -2 -30 -8 -51 -15 -52 -35 -3 -86 4 -116 17 -18 8 -37 12 -41 9 -4
-3 -3 14 2 38 5 23 10 57 10 75 0 17 4 34 8 37 4 3 6 15 2 27 -4 18 -2 20 14
15 18 -7 18 -6 2 7 -26 19 -23 39 5 31 20 -5 20 -5 -3 10 l-25 16 24 -7 c16
-4 21 -3 17 5 -4 6 -14 11 -22 11 -8 0 -14 4 -14 9 0 5 21 3 48 -4 26 -8 74
-17 107 -21z m70 -218 c16 -32 17 -39 5 -46 -8 -6 -19 -10 -25 -10 -5 0 -4 4
3 9 10 6 7 10 -12 15 -15 4 -24 11 -20 17 4 8 10 7 17 0 6 -6 15 -11 21 -11 5
0 1 6 -9 14 -20 14 -29 59 -11 53 6 -2 20 -20 31 -41z m-269 -51 c-7 -18 5
-20 22 -3 9 9 12 9 12 0 0 -7 10 -13 23 -14 12 -1 -5 -4 -38 -8 -34 -3 10 -5
102 -4 146 1 165 3 198 23 20 11 48 21 63 21 59 0 192 -57 175 -74 -5 -4 0
-12 10 -17 9 -6 17 -16 17 -24 0 -8 5 -17 12 -21 6 -4 8 -3 4 4 -3 6 2 12 11
15 14 3 12 6 -9 15 -27 11 -39 32 -18 32 6 0 10 -5 10 -12 0 -6 3 -9 6 -5 8 7
34 -17 34 -32 0 -22 -69 -61 -145 -81 -179 -49 -530 -31 -662 33 -44 21 -64
47 -37 47 8 0 13 4 9 10 -3 5 -13 6 -23 3 -15 -6 -15 -5 -3 10 13 16 16 16 37
2 30 -19 44 -20 18 0 -19 14 -19 14 1 15 17 0 17 2 5 10 -10 6 -16 6 -18 0 -5
-13 -22 -13 -22 0 0 12 93 40 134 40 17 0 38 5 46 11 11 7 3 9 -30 5 -33 -4
-38 -3 -20 3 14 5 38 9 54 10 21 1 27 -3 22 -14z"/>
<path d="M1352 1920 c50 -31 63 -36 54 -21 -6 10 -82 51 -94 51 -4 0 14 -14
40 -30z"/>
<path d="M1420 1880 c0 -5 6 -10 13 -10 8 0 22 -9 32 -20 10 -11 23 -20 28
-20 11 0 -54 60 -65 60 -5 0 -8 -4 -8 -10z"/>
<path d="M681 1303 c0 -23 4 -45 9 -48 6 -3 10 -15 10 -26 0 -10 5 -19 10 -19
13 0 13 7 -2 33 -7 12 -15 40 -19 62 l-6 40 -2 -42z"/>
<path d="M620 1182 c0 -19 29 -71 56 -101 13 -14 24 -29 24 -34 0 -4 4 -6 9
-2 5 3 -2 18 -16 33 -14 15 -36 47 -49 72 -12 25 -23 39 -24 32z"/>
<path d="M1380 1023 c0 -6 -13 -16 -30 -22 -36 -12 -39 -21 -7 -21 21 0 54 36
43 48 -3 3 -6 1 -6 -5z"/>
<path d="M1095 1775 c-18 -8 -23 -14 -13 -14 9 -1 18 -6 20 -12 2 -6 11 -7 22
-3 19 7 19 8 0 16 -14 6 -11 7 11 4 17 -3 38 -8 48 -11 9 -4 17 -3 17 3 0 5
-11 13 -24 16 -13 3 -30 8 -38 11 -7 2 -26 -2 -43 -10z"/>
<path d="M1029 1729 c18 -6 42 -19 54 -30 11 -10 27 -19 35 -19 9 0 5 7 -10
20 -30 23 -72 40 -96 39 -9 0 -2 -5 17 -10z"/>
<path d="M1143 1732 c-8 -5 -8 -12 2 -26 13 -18 16 -18 40 -2 14 9 25 20 25
24 0 10 -52 14 -67 4z"/>
<path d="M946 1707 c66 -22 106 -50 100 -69 -2 -10 0 -16 5 -12 5 3 9 0 9 -7
0 -10 3 -10 11 -2 9 9 8 18 -5 37 -21 33 -62 54 -117 61 l-44 5 41 -13z"/>
<path d="M1200 1701 c0 -5 -9 -11 -20 -14 -28 -7 -16 -35 13 -30 15 3 23 12
25 29 1 13 -3 24 -8 24 -6 0 -10 -4 -10 -9z"/>
<path d="M1255 1473 c5 -18 3 -22 -8 -17 -8 3 -18 1 -21 -5 -7 -11 -1 -16 37
-25 26 -6 28 -5 22 16 -4 13 -14 30 -22 38 -13 13 -14 13 -8 -7z"/>
<path d="M1123 1472 c-22 -3 -33 -22 -13 -22 19 0 25 -2 38 -12 9 -8 12 -5 12
10 0 25 -7 29 -37 24z"/>
<path d="M1517 1453 c-4 -3 -7 -13 -7 -22 0 -8 -10 -25 -22 -38 -16 -17 -18
-23 -7 -24 8 0 6 -3 -5 -8 -11 -4 -20 -15 -22 -24 -3 -25 33 -3 42 25 3 12 13
28 20 36 8 7 14 24 14 38 0 25 -2 28 -13 17z"/>
<path d="M1178 1393 c-24 -6 -23 -18 4 -43 25 -23 34 -25 43 -9 4 6 0 9 -11 7
-13 -2 -20 4 -22 20 -4 26 13 29 27 5 9 -16 10 -16 11 -2 0 13 -25 34 -33 28
-1 -1 -10 -3 -19 -6z"/>
<path d="M1514 1250 c-10 -11 -28 -29 -38 -40 -11 -11 -15 -20 -10 -20 6 0 25
18 43 40 34 43 37 53 5 20z"/>
<path d="M945 1370 c3 -5 1 -10 -4 -10 -14 0 -14 -40 -1 -60 9 -13 10 -13 11
0 0 10 3 8 8 -5 5 -11 6 -54 4 -95 -4 -60 -2 -79 12 -95 16 -20 16 -20 11 0
-9 37 -10 114 -1 122 4 5 5 2 0 -6 -6 -10 -4 -12 4 -7 9 6 9 11 1 21 -6 7 -10
17 -8 21 1 5 -4 26 -12 46 -9 25 -17 34 -22 25 -5 -8 -8 -7 -8 5 0 9 5 20 10
23 13 8 13 25 -1 25 -5 0 -7 -4 -4 -10z"/>
<path d="M907 1333 c4 -9 2 -14 -3 -11 -5 3 -14 0 -21 -7 -10 -10 -9 -14 3
-19 9 -3 20 -4 25 0 10 6 12 -7 3 -30 -3 -9 -10 -13 -15 -10 -8 5 -12 -25 -12
-106 0 -19 5 -45 11 -56 8 -15 8 -24 1 -31 -8 -8 -7 -13 0 -18 6 -3 11 -3 10
2 -3 20 2 23 21 13 11 -6 18 -15 15 -21 -4 -5 -1 -8 7 -7 7 2 12 -2 11 -9 -2
-8 4 -10 14 -6 12 5 14 3 8 -8 -4 -8 -5 -11 0 -7 4 4 21 0 38 -9 36 -18 107
-27 107 -13 0 6 8 10 18 10 25 0 58 61 47 86 -6 16 -9 14 -17 -14 -6 -23 -14
-32 -24 -28 -7 3 -14 1 -14 -5 0 -7 -10 -9 -25 -5 -14 4 -25 2 -25 -4 0 -5 5
-10 10 -10 6 0 10 -4 10 -10 0 -17 -16 -11 -45 16 -15 14 -30 22 -34 19 -3 -4
5 -15 18 -26 13 -10 18 -19 12 -19 -18 0 -63 31 -107 76 -33 33 -42 50 -48 91
-7 52 1 94 14 74 5 -10 6 20 1 97 0 12 -5 22 -11 22 -5 0 -6 -7 -3 -17z"/>
<path d="M1013 1264 c17 -25 33 -41 35 -35 4 11 -48 81 -60 81 -4 0 7 -20 25
-46z"/>
<path d="M948 678 c-3 -35 -2 -83 2 -108 6 -35 8 -20 9 63 0 59 -1 107 -3 107
-2 0 -5 -28 -8 -62z"/>
<path d="M1042 695 c2 -50 18 -55 18 -6 0 23 -4 41 -10 41 -5 0 -9 -16 -8 -35z"/>
<path d="M1235 438 c33 -18 57 -48 51 -63 -3 -9 0 -12 10 -8 7 3 14 9 14 14 0
12 -33 45 -59 58 -26 15 -42 14 -16 -1z"/>
<path d="M1494 329 c-10 -12 -32 -30 -49 -40 -16 -11 -25 -19 -20 -19 22 0
103 66 93 76 -3 2 -13 -6 -24 -17z"/>
</g>
</svg>
