<?xml version="1.0" standalone="no"?>
<!DOCTYPE svg PUBLIC "-//W3C//DTD SVG 20010904//EN"
 "http://www.w3.org/TR/2001/REC-SVG-20010904/DTD/svg10.dtd">
<svg version="1.0" xmlns="http://www.w3.org/2000/svg"
 width="225.000000pt" height="225.000000pt" viewBox="0 0 225.000000 225.000000"
 preserveAspectRatio="xMidYMid meet">
<metadata>
Created by potrace 1.10, written by Peter Selinger 2001-2011
</metadata>
<g transform="translate(0.000000,225.000000) scale(0.100000,-0.100000)"
fill="#000000" stroke="none">
<path d="M990 1842 c-30 -10 -77 -31 -104 -47 -61 -36 -148 -120 -166 -162 -8
-17 -18 -29 -22 -27 -4 3 -5 -3 -1 -12 4 -12 3 -15 -5 -10 -8 5 -10 2 -6 -8 3
-9 2 -16 -3 -16 -10 0 -10 2 -19 -131 -6 -82 -4 -107 14 -165 77 -252 342
-392 588 -309 41 14 80 24 86 22 7 -1 12 4 13 11 0 7 12 20 26 30 101 67 168
175 191 310 34 200 -73 401 -261 490 -69 34 -85 37 -176 39 -75 2 -114 -1
-155 -15z m287 -24 c59 -22 70 -33 53 -53 -9 -11 -20 -10 -68 8 -78 28 -197
28 -272 -2 -51 -20 -56 -20 -67 -4 -7 9 -13 20 -13 24 0 9 111 46 155 52 52 8
158 -4 212 -25z m-375 -92 c-85 -61 -149 -167 -159 -262 -6 -53 -6 -54 -39
-54 -39 0 -38 -5 -20 81 23 109 75 191 164 261 l47 36 17 -21 c17 -21 16 -23
-10 -41z m352 36 c57 -20 66 -34 37 -58 -11 -10 -18 -21 -16 -25 3 -4 -1 -12
-9 -18 -10 -8 -28 -7 -73 4 -99 25 -192 -3 -267 -83 -23 -25 -32 -29 -46 -20
-25 16 -64 2 -81 -28 -7 -15 -14 -49 -14 -75 0 -41 -3 -49 -19 -49 -43 0 5
158 74 242 38 46 100 88 163 109 68 24 186 24 251 1z m162 -27 c29 -24 66 -67
84 -95 35 -55 70 -155 70 -201 0 -24 -4 -29 -24 -29 -21 0 -24 6 -29 52 -10
80 -58 168 -127 230 -47 43 -57 57 -49 71 14 24 18 22 75 -28z m-14 -68 c47
-48 92 -141 102 -209 l7 -47 -54 0 -55 0 -5 37 c-8 44 -5 47 22 30 13 -8 19
-19 16 -30 -7 -18 10 -34 20 -18 3 5 2 10 -4 10 -6 0 -8 6 -5 13 5 15 -42 64
-52 54 -4 -4 -19 13 -34 36 -15 24 -39 53 -53 64 -25 20 -26 21 -11 63 9 24
18 48 20 52 8 12 41 -9 86 -55z m-183 -18 c34 -12 40 -24 15 -33 -9 -3 -14
-13 -11 -21 4 -9 1 -12 -8 -8 -9 3 -21 -7 -32 -26 -15 -26 -24 -31 -55 -31
-20 0 -42 -2 -50 -5 -8 -3 -20 10 -32 35 -11 22 -26 46 -35 53 -8 6 -1 -14 16
-45 l30 -56 -21 -23 -21 -23 22 18 c12 10 27 15 33 11 6 -3 9 -1 8 7 -4 18 65
20 108 2 23 -10 39 -26 49 -50 18 -44 18 -44 1 -44 -8 0 -18 10 -22 23 -15 50
-71 72 -132 53 -23 -8 -56 -59 -45 -70 4 -3 -2 -6 -11 -6 -15 0 -17 5 -12 26
4 14 3 23 -2 20 -12 -7 -79 40 -92 64 -28 52 105 140 210 140 31 0 71 -5 89
-11z m100 -75 c35 -39 71 -119 71 -156 0 -10 -130 -11 -130 0 0 4 -3 17 -6 30
-5 18 -2 22 15 22 12 0 19 5 16 10 -3 6 4 10 17 10 13 0 30 5 38 10 25 16 -14
12 -61 -6 -39 -16 -41 -16 -61 3 -19 19 -19 22 -4 47 9 14 23 37 31 51 9 14
19 25 24 25 5 0 28 -21 50 -46z m-445 -73 c-8 -18 -14 -46 -14 -62 0 -26 -3
-29 -31 -29 l-32 0 6 56 c6 55 22 89 37 79 5 -3 11 -1 15 5 4 6 11 5 20 -3 11
-10 11 -17 -1 -46z m86 -49 c10 -9 11 -11 1 -6 -9 5 -12 3 -7 -4 5 -9 13 -9
27 -2 16 9 19 7 19 -10 0 -18 -6 -20 -66 -20 l-66 0 7 37 c4 21 11 46 17 56 9
17 11 16 31 -10 12 -15 28 -34 37 -41z m205 2 c1 -5 6 -19 13 -31 6 -12 9 -29
6 -37 -6 -16 -13 -19 -46 -19 -10 0 -15 -4 -12 -8 3 -5 10 -7 15 -4 5 4 9 2 9
-4 0 -15 -18 -23 -25 -11 -4 6 -10 8 -15 5 -17 -10 -41 8 -38 29 1 11 -1 26
-5 33 -10 16 31 43 68 43 24 0 27 2 15 11 -13 9 -13 10 0 6 8 -2 15 -8 15 -13z
m-424 -110 c12 -95 75 -202 152 -254 34 -24 35 -25 21 -52 l-15 -29 -45 33
c-53 38 -115 116 -142 178 -19 45 -24 64 -37 143 l-6 38 33 -3 c32 -3 33 -5
39 -54z m49 41 c0 -8 4 -15 10 -15 5 0 7 -6 4 -13 -7 -19 34 -67 57 -67 11 0
30 -16 45 -40 33 -50 77 -84 137 -104 58 -20 143 -20 177 -1 14 8 30 14 35 15
9 0 55 -71 55 -84 0 -12 -58 -35 -117 -46 -68 -14 -147 -4 -216 25 -32 13 -37
19 -27 30 10 13 14 13 26 0 32 -32 171 -32 219 -1 28 19 52 56 35 56 -6 0 -16
-11 -22 -25 -6 -14 -18 -25 -25 -25 -8 0 -11 5 -8 11 4 5 -10 2 -32 -7 -44
-20 -96 -24 -135 -10 -30 11 -39 29 -10 20 9 -3 7 0 -6 8 -17 11 -20 16 -10
26 9 9 9 15 0 24 -7 7 -13 9 -13 5 -6 -30 -31 -87 -39 -87 -4 0 -31 21 -59 46
-60 54 -109 146 -118 222 -5 48 -4 52 16 52 12 0 21 -6 21 -15z m70 -9 c0 -14
4 -36 10 -50 8 -21 7 -24 -8 -19 -23 8 -52 34 -52 46 0 5 7 4 15 -3 8 -7 15
-8 15 -4 0 5 -9 15 -20 22 -25 16 -17 32 16 32 19 0 24 -5 24 -24z m137 4 c-3
-11 -1 -20 5 -20 5 0 8 -5 6 -11 -2 -6 -8 -11 -13 -11 -6 0 -21 -6 -35 -13
-14 -7 -34 -17 -45 -21 -17 -6 -18 -8 -3 -11 9 -2 39 5 65 17 30 13 49 17 51
10 2 -5 13 -15 25 -22 17 -9 14 -3 -10 26 -32 35 -44 76 -23 76 6 0 10 -5 10
-12 0 -6 10 -27 23 -45 18 -28 28 -33 60 -33 51 0 95 27 102 62 8 34 35 38 32
5 -1 -17 10 -33 43 -58 25 -19 46 -42 48 -51 4 -18 -66 -90 -79 -82 -5 3 -9 0
-9 -6 0 -6 -4 -9 -9 -6 -5 4 -11 1 -13 -4 -9 -27 -187 -27 -196 0 -2 6 -8 8
-13 4 -21 -13 -6 14 26 46 19 19 35 39 35 46 0 8 10 9 33 5 18 -4 40 -3 50 3
16 9 22 6 35 -13 37 -54 53 -65 27 -18 l-27 49 21 19 c12 11 21 23 21 26 0 4
-11 -4 -25 -17 -14 -13 -25 -19 -25 -14 0 5 -4 2 -10 -6 -6 -9 -23 -14 -52
-12 -34 1 -47 -4 -61 -21 -17 -20 -18 -20 -13 -2 5 16 3 16 -14 -5 -11 -14
-18 -30 -16 -36 3 -6 -7 -18 -21 -25 -24 -13 -27 -12 -63 29 -37 41 -70 115
-70 154 0 16 9 18 66 18 61 0 66 -1 61 -20z m388 -12 c-4 -17 -13 -45 -21 -62
-13 -30 -14 -30 -20 -8 -3 12 -9 22 -13 22 -4 0 -16 8 -27 18 -10 9 -25 17
-31 17 -7 0 -13 3 -13 8 0 4 0 14 0 22 0 12 14 15 66 15 l66 0 -7 -32z m70
-11 c1 -26 -1 -34 -7 -25 -6 9 -7 6 -3 -9 4 -15 2 -23 -6 -23 -7 0 -10 -3 -6
-6 3 -4 0 -13 -8 -20 -7 -8 -16 -19 -18 -26 -4 -10 -7 -10 -15 0 -5 8 -13 14
-18 15 -5 1 -8 4 -7 7 16 34 32 90 33 108 0 19 5 23 26 20 23 -3 27 -8 29 -41z
m50 -4 c-10 -77 -60 -172 -117 -225 -28 -27 -54 -48 -58 -48 -4 0 -19 19 -33
43 l-26 42 41 42 c36 37 43 40 64 31 54 -25 94 29 94 125 0 31 3 37 21 37 20
0 21 -4 14 -47z m62 -15 c-10 -94 -71 -212 -144 -278 l-58 -50 -18 22 -18 23
11 -24 c15 -29 9 -34 -79 -61 -85 -27 -192 -26 -274 1 -34 11 -66 24 -70 29
-7 6 4 40 18 58 1 1 24 -8 51 -20 39 -18 68 -22 144 -23 88 0 101 3 162 33
122 60 210 178 225 301 5 46 8 51 31 51 25 0 25 -1 19 -62z"/>
<path d="M1090 1728 c-38 -11 -70 -35 -70 -52 0 -8 2 -8 8 0 15 24 57 36 133
40 43 2 81 -1 84 -6 8 -13 35 -13 35 -1 0 27 -120 39 -190 19z"/>
<path d="M651 1252 c-1 -20 41 -115 61 -136 10 -11 18 -24 18 -30 0 -5 3 -7 6
-3 3 3 -2 18 -13 34 -18 26 -54 100 -66 133 -4 10 -6 11 -6 2z"/>
<path d="M750 1074 c0 -22 137 -134 164 -134 19 0 1 18 -29 29 -19 7 -35 17
-35 22 0 5 -5 9 -12 9 -6 0 -29 19 -50 42 -21 23 -38 38 -38 32z"/>
<path d="M1230 926 c-21 -20 -144 -27 -192 -10 -21 7 -38 11 -38 8 0 -3 -7
-62 -15 -131 -9 -69 -13 -139 -10 -154 7 -33 58 -79 86 -79 18 0 18 -8 14
-146 -3 -99 0 -144 7 -142 6 2 10 53 9 141 l-2 137 42 0 41 0 -3 -97 c-3 -61
0 -98 6 -98 6 0 9 38 7 100 l-3 100 32 15 c18 8 42 27 53 42 19 27 19 33 7
146 -7 64 -16 132 -19 150 -6 29 -9 31 -22 18z m-122 -43 c26 -3 48 0 57 7 12
10 18 10 30 0 8 -6 19 -9 25 -5 6 4 10 -4 10 -19 0 -18 -5 -26 -17 -26 -15 0
-16 -2 -3 -9 8 -6 17 -8 21 -5 4 2 10 0 14 -6 3 -5 -2 -10 -11 -10 -16 0 -16
-1 -1 -18 10 -10 17 -29 16 -43 l-1 -24 -8 25 -8 25 -1 -26 c-1 -15 5 -29 14
-33 8 -3 15 -10 15 -16 0 -6 -5 -8 -11 -4 -9 5 -10 -1 -5 -20 4 -15 2 -26 -4
-26 -5 0 -10 -6 -10 -12 -1 -7 -12 -26 -25 -43 -19 -23 -25 -26 -25 -12 0 9
-4 17 -10 17 -5 0 -7 -6 -4 -14 4 -10 -2 -12 -20 -9 -14 3 -23 9 -20 14 3 5
-2 9 -10 9 -9 0 -17 -8 -17 -17 -1 -17 -2 -17 -6 0 -2 9 -8 17 -13 17 -5 0 -7
-8 -4 -17 5 -15 3 -15 -10 2 -15 18 -15 20 4 30 11 6 18 14 14 18 -4 3 -19 -3
-35 -14 l-28 -20 -15 29 c-8 16 -13 32 -10 35 6 6 10 36 19 147 3 36 6 71 7
78 1 9 8 11 22 7 12 -4 40 -10 64 -12z"/>
<path d="M1134 629 c-2 -4 0 -10 5 -13 5 -4 12 -2 16 4 4 7 13 6 27 -1 16 -9
19 -8 16 2 -5 14 -56 21 -64 8z"/>
<path d="M945 730 c-5 -47 -7 -96 -6 -110 3 -35 32 -72 72 -92 40 -20 49 -22
49 -8 0 6 -6 10 -13 10 -14 0 -78 44 -74 51 1 2 0 3 -2 1 -15 -9 -26 70 -18
127 4 35 7 73 5 85 -2 11 -8 -17 -13 -64z"/>
</g>
</svg>
